<svg width="248" height="247" viewBox="0 0 248 247" fill="none" xmlns="http://www.w3.org/2000/svg">
<rect x="0.5" width="247" height="247" rx="1.93548" fill="#EEEEF0"/>
<path d="M124.48 52.7863C151.121 52.7863 172.722 74.3871 172.722 101.029C172.722 127.67 151.121 149.274 124.48 149.274C97.8383 149.274 76.2347 127.67 76.2347 101.029C76.2347 74.3871 97.8383 52.7863 124.48 52.7863ZM34.3628 246.351C36.1278 197.893 75.9892 159.46 124.48 159.46C172.967 159.46 212.832 197.893 214.594 246.351L196.126 247C194.723 208.465 163.02 178.002 124.48 178.002C85.9363 178.002 54.2336 208.465 52.8309 247L34.3628 246.351H34.3628ZM124.48 71.3276C108.072 71.3276 94.7759 84.6235 94.7759 101.029C94.7759 117.437 108.072 130.732 124.48 130.732C140.885 130.732 154.181 117.437 154.181 101.029C154.181 84.6235 140.885 71.3276 124.48 71.3276Z" fill="#D1D1D6"/>
</svg>
